<!DOCTYPE svg PUBLIC "-//W3C//DTD SVG 20010904//EN" "http://www.w3.org/TR/2001/REC-SVG-20010904/DTD/svg10.dtd">
<svg version="1.0" xmlns="http://www.w3.org/2000/svg" width="938px" height="938px" viewBox="0 0 9380 9380" preserveAspectRatio="xMidYMid meet">
<g id="layer101" fill="#165b12" stroke="none">
 <path d="M1450 9374 c-45 -16 -65 -34 -99 -94 -21 -36 -199 -344 -395 -684 l-358 -619 11 -91 c6 -50 20 -165 31 -256 11 -91 25 -203 30 -250 21 -179 81 -684 135 -1135 31 -258 72 -598 90 -755 19 -157 48 -402 65 -545 17 -143 46 -388 65 -545 18 -157 59 -496 90 -755 31 -258 60 -501 65 -540 4 -38 15 -140 25 -225 9 -85 20 -171 25 -190 10 -38 450 -804 478 -832 17 -17 119 -54 812 -298 201 -71 680 -239 1065 -375 385 -136 828 -292 985 -347 157 -55 353 -124 435 -153 83 -29 323 -114 535 -188 212 -74 417 -147 455 -160 39 -14 187 -67 330 -117 143 -50 334 -119 425 -153 l165 -62 357 0 358 0 24 25 c44 44 348 582 349 617 1 23 -37 98 -147 290 -201 349 -190 334 -261 359 -33 12 -134 56 -225 99 -91 42 -201 94 -245 115 -44 20 -269 126 -500 235 -231 109 -627 294 -880 412 -253 119 -505 237 -560 263 -55 25 -181 84 -280 130 -99 46 -183 86 -187 89 -4 3 73 38 170 78 2443 994 2954 1201 2989 1211 27 8 51 24 66 45 13 18 153 256 311 529 255 443 286 502 286 541 0 39 -32 99 -302 567 l-303 523 -95 52 c-52 28 -1155 758 -2450 1621 l-2355 1569 -785 2 c-432 1 -792 -1 -800 -3z m2995 -1041 c677 -450 1686 -1122 2244 -1493 l1015 -675 -525 -5 -525 -5 -43 -28 c-23 -16 -318 -172 -654 -349 -337 -176 -652 -342 -702 -368 -49 -26 -196 -103 -325 -170 -129 -67 -258 -135 -286 -151 l-51 -29 -1464 729 -1464 730 673 0 c581 1 678 3 706 16 23 11 46 39 80 98 110 187 716 1238 730 1266 9 16 16 40 16 53 0 13 -88 176 -196 363 -108 187 -263 456 -345 598 -81 141 -141 253 -131 248 9 -5 571 -378 1247 -828z m-3226 -1485 l166 -287 595 -296 c327 -164 694 -346 815 -405 121 -60 554 -274 963 -477 l743 -369 -508 -264 c-279 -146 -579 -303 -668 -349 -88 -45 -432 -225 -765 -399 -333 -174 -663 -346 -735 -382 l-130 -66 -168 -289 c-92 -160 -182 -316 -200 -348 l-33 -58 -32 268 c-18 147 -37 300 -42 338 -6 39 -17 126 -25 195 -8 69 -37 310 -65 535 -28 226 -66 538 -85 695 -19 157 -40 321 -45 365 -6 44 -22 170 -35 280 -14 110 -43 349 -65 530 -22 182 -52 422 -65 535 -14 113 -29 239 -35 280 -5 41 -14 113 -20 160 -5 47 -26 216 -45 375 -19 160 -37 304 -40 320 -3 17 76 -112 176 -285 101 -173 257 -444 348 -602z m5270 -910 c-7 -13 -58 -102 -114 -198 -305 -524 -385 -669 -385 -694 0 -35 -7 -23 272 -505 132 -228 242 -420 245 -427 3 -7 -407 192 -910 443 l-916 457 237 124 c130 68 287 149 347 181 113 60 396 208 660 347 83 43 242 127 355 186 113 59 209 108 213 108 4 0 2 -10 -4 -22z m88 -1970 l68 -43 489 -5 488 -5 -643 -262 c-354 -144 -1032 -420 -1506 -613 l-863 -351 -602 282 c-332 155 -646 302 -698 327 -52 24 -187 87 -300 140 -113 52 -230 109 -260 126 l-55 31 -355 3 -354 3 249 130 c138 72 304 159 370 193 66 35 401 211 745 391 344 180 679 356 745 391 66 34 205 108 309 162 l190 100 957 -479 c527 -263 988 -497 1026 -521z m-3402 -693 c171 -80 538 -252 817 -383 280 -130 508 -239 508 -242 0 -5 -193 -84 -1340 -551 -173 -70 -316 -126 -319 -124 -2 2 87 161 198 353 154 268 201 357 201 383 0 36 0 34 -258 482 -72 125 -128 227 -124 227 5 0 147 -65 317 -145z m2341 -1096 c494 -232 1081 -507 1304 -611 223 -105 441 -207 485 -227 l80 -36 -237 -5 c-233 -5 -237 -5 -262 -29 -14 -14 -99 -151 -188 -305 -125 -216 -162 -289 -162 -316 -1 -26 26 -82 108 -225 60 -105 122 -212 139 -238 16 -26 28 -49 26 -51 -2 -2 -110 33 -239 79 -226 80 -970 341 -1555 545 -154 54 -552 193 -885 310 -333 117 -693 243 -800 280 -309 108 -1167 409 -1255 440 l-80 29 340 0 c187 1 354 5 370 10 17 6 449 181 960 390 512 209 935 380 941 380 6 1 415 -189 910 -420z"/>
 </g>

</svg>
